<svg id="Layer_1" data-name="Layer 1" xmlns="http://www.w3.org/2000/svg" viewBox="0 0 274.5 122.18"><defs><style>.cls-1{fill:#04a777;}.cls-2,.cls-3,.cls-4{fill:none;}.cls-2{stroke:#e6ccbe;}.cls-2,.cls-3{stroke-miterlimit:10;}.cls-2,.cls-4{stroke-width:4px;}.cls-3,.cls-4{stroke:#04a777;}.cls-4{stroke-linecap:round;stroke-linejoin:round;}</style></defs><title>logo-quick</title><circle class="cls-1" cx="25" cy="63" r="25"/><path class="cls-2" d="M513,64" transform="translate(-3 -4)"/><line class="cls-3" x1="5" y1="63" x2="80" y2="63"/><line class="cls-4" x1="80" y1="63" x2="90.26" y2="34.81"/><line class="cls-4" x1="90" y1="35" x2="110.52" y2="91.38"/><line class="cls-4" x1="111" y1="91" x2="126.63" y2="2.37"/><line class="cls-4" x1="127" y1="2" x2="147.84" y2="120.18"/><line class="cls-4" x1="148" y1="120" x2="163.63" y2="31.37"/><line class="cls-4" x1="164" y1="31" x2="184.52" y2="87.38"/><line class="cls-4" x1="185" y1="87" x2="195.26" y2="58.81"/><line class="cls-4" x1="195" y1="59" x2="230.65" y2="59"/><polygon class="cls-1" points="227.73 68.97 245 59 227.73 49.03 227.73 68.97"/><line class="cls-4" x1="245" y1="74" x2="262.5" y2="43.69"/><line class="cls-4" x1="255" y1="74" x2="272.5" y2="43.69"/><line class="cls-4" x1="80" y1="63" x2="25" y2="63"/></svg>