<svg id="Layer_1" data-name="Layer 1" xmlns="http://www.w3.org/2000/svg" viewBox="0 0 274.5 122.18"><defs><style>.cls-1,.cls-2{fill:#fff;}.cls-2,.cls-3{stroke:#fff;stroke-linecap:round;stroke-linejoin:round;stroke-width:4px;}.cls-3{fill:none;}</style></defs><title>logo-quick-white</title><circle class="cls-1" cx="25" cy="63" r="24.5"/><path class="cls-1" d="M28,43A24,24,0,1,1,4,67,24,24,0,0,1,28,43m0-1A25,25,0,1,0,53,67,25,25,0,0,0,28,42Z" transform="translate(-3 -4)"/><line class="cls-2" x1="80" y1="63" x2="90.26" y2="34.81"/><line class="cls-2" x1="90" y1="35" x2="110.52" y2="91.38"/><line class="cls-2" x1="111" y1="91" x2="126.63" y2="2.37"/><line class="cls-2" x1="127" y1="2" x2="147.84" y2="120.18"/><line class="cls-2" x1="148" y1="120" x2="163.63" y2="31.37"/><line class="cls-2" x1="164" y1="31" x2="184.52" y2="87.38"/><line class="cls-2" x1="185" y1="87" x2="195.26" y2="58.81"/><line class="cls-1" x1="195" y1="59" x2="245" y2="59"/><line class="cls-3" x1="195" y1="59" x2="230.65" y2="59"/><polygon class="cls-1" points="227.73 68.97 245 59 227.73 49.03 227.73 68.97"/><line class="cls-2" x1="245" y1="74" x2="262.5" y2="43.69"/><line class="cls-2" x1="255" y1="74" x2="272.5" y2="43.69"/><line class="cls-2" x1="80" y1="63" x2="25" y2="63"/></svg>