<svg id="Layer_1" data-name="Layer 1" xmlns="http://www.w3.org/2000/svg" viewBox="0 0 299.48 300"><defs><style>.cls-1{fill:#04a777}</style></defs><path class="cls-1" d="M144 116.08a8.36 8.36 0 0 1 15.48.41l37.13 102 15-41.24a8 8 0 0 1 5.58-5 8 8 0 0 1 3.52-.83h58.74V139.5l50.66 29.26a150 150 0 0 0-299.33 2.63h93.08z" transform="translate(-30.68 -30)"/><path class="cls-1" d="M279.42 219.28v-31.89h-54.51l-20.35 55.91a8 8 0 0 1-7.51 5.26 7.9 7.9 0 0 1-2-.25 8 8 0 0 1-6.57-5.19l-36.85-101.31L137 182.13v.09a7.55 7.55 0 0 1-.48 1l-.06.11a9 9 0 0 1-.55.82 1.49 1.49 0 0 1-.15.2 7.06 7.06 0 0 1-.69.76l-.19.17a8.69 8.69 0 0 1-.75.61l-.13.11a6.79 6.79 0 0 1-.94.55l-.17.08a7.68 7.68 0 0 1-2.07.65h-.26a6.63 6.63 0 0 1-1 .08H30.68A150 150 0 0 0 330.16 190z" transform="translate(-30.68 -30)"/></svg>